#tb 0: 1/25
0,          0,          0,        1,  1382400, 0x52b8683b
0,          1,          1,        1,  1382400, 0xbf71852f
0,          2,          2,        1,  1382400, 0xa215d116
0,          3,          3,        1,  1382400, 0x6c806d08
0,          4,          4,        1,  1382400, 0x4e5a7b50
0,          5,          5,        1,  1382400, 0xcfd3eba6
0,          6,          6,        1,  1382400, 0xa250dacf
0,          7,          7,        1,  1382400, 0x5e161cbc
0,          8,          8,        1,  1382400, 0xebbb78f2
0,          9,          9,        1,  1382400, 0xd9036b3b
0,         10,         10,        1,  1382400, 0x895a8fbf
0,         11,         11,        1,  1382400, 0xa0eeb906
0,         12,         12,        1,  1382400, 0xcd6c811e
0,         13,         13,        1,  1382400, 0x3024b12b
0,         14,         14,        1,  1382400, 0x57b0ba40
0,         15,         15,        1,  1382400, 0xaab882e6
0,         16,         16,        1,  1382400, 0x15ace32a
0,         17,         17,        1,  1382400, 0x273fffbc
0,         18,         18,        1,  1382400, 0xec721abc
0,         19,         19,        1,  1382400, 0xd6f7f846
